<svg width="1080" height="1080" viewBox="0 0 1080 1080" fill="none" xmlns="http://www.w3.org/2000/svg">
<rect width="1080" height="1080" rx="540" fill="#FF7615"/>
<path d="M7 416.517C10.2513 419.764 11.9896 420.506 16.2468 421.96C17.4788 422.391 18.7107 422.822 19.9801 423.266C21.292 423.721 22.6039 424.176 23.9555 424.645C47.8774 433.229 67.0795 445.68 85.7462 462.945C89.2919 466.263 89.2919 466.263 93.9091 469.737C99.4938 474.721 103.891 480.309 108.557 486.145C112.529 490.971 116.677 495.555 120.941 500.121C127.592 507.258 133.814 514.64 139.937 522.238C144.775 528.078 149.925 533.608 155.07 539.178C158.971 543.527 162.636 548.006 166.285 552.567C171.166 558.62 175.937 563.611 182.175 568.243C183.724 566.809 183.724 566.809 185.305 565.346C192.637 558.618 199.999 552.04 207.753 545.794C215.109 539.866 222.073 533.607 229.014 527.203C234.788 522.043 240.836 517.268 246.951 512.519C250.26 509.523 251.855 507.32 253.485 503.218C251.713 501.167 251.713 501.167 249.906 499.075C241.403 489.213 232.971 479.31 224.757 469.205C221.801 465.579 218.829 461.969 215.843 458.367C214.925 457.258 214.007 456.149 213.06 455.007C211.286 452.866 209.511 450.727 207.733 448.589C206.88 447.559 206.028 446.529 205.149 445.467C204.251 444.433 203.352 443.398 202.427 442.332C199.227 438.192 199.227 438.192 196.324 432.814C191.869 425.037 187.155 418.059 178.253 415.302C166.31 413.408 154.232 414.033 142.19 414.4C138.287 414.441 134.384 414.471 130.481 414.493C121.294 414.567 112.111 414.737 102.927 414.956C91.431 415.223 79.9346 415.338 68.4365 415.458C47.9548 415.69 27.4778 416.056 7 416.517ZM351.976 432.673C347.996 436.728 343.609 440.287 339.231 443.901C337.557 445.313 335.883 446.726 334.211 448.141C329.883 451.774 325.505 455.343 321.113 458.9C312.263 466.096 303.663 473.564 295.062 481.052C291.298 484.326 287.515 487.573 283.702 490.789C270.58 501.867 258.025 513.46 245.544 525.25C236.317 533.932 227.001 542.524 217.345 550.729C212.222 555.156 207.814 559.972 203.472 565.159C200.16 568.949 196.596 572.435 193.026 575.984C182.163 587.458 171.9 599.262 162.022 611.594C160.537 613.417 159.052 615.239 157.565 617.061C147.842 629.021 138.632 641.227 129.791 653.848C127.947 656.45 126.063 659.018 124.163 661.578C109.952 680.821 97.8638 701.444 86.3518 722.389C85.819 723.337 85.2862 724.286 84.7372 725.264C83.1343 728.161 83.1343 728.161 81.4105 732.355C81.9221 733.888 82.4336 735.421 82.9607 737C83.4563 736.321 83.9519 735.643 84.4625 734.944C98.8324 716.931 120.103 704.13 140.319 693.65C141.668 692.935 141.668 692.935 143.045 692.206C174.835 675.539 212.783 669.192 248.453 668.388C249.672 668.356 250.89 668.324 252.146 668.291C255.983 668.191 259.821 668.099 263.658 668.007C266.283 667.94 268.908 667.873 271.533 667.804C277.919 667.64 284.304 667.483 290.69 667.33C300.54 628.217 300.54 628.217 310.165 589.047C310.553 587.459 310.942 585.87 311.343 584.234C311.692 582.787 312.04 581.34 312.399 579.849C312.7 578.606 313.001 577.364 313.311 576.084C314.094 572.671 314.094 572.671 313.943 568.243C314.763 567.906 315.582 567.569 316.426 567.221C321.527 564.375 325.673 560.574 330.027 556.728C337.341 550.365 344.742 544.182 352.408 538.246C361.705 531.038 370.812 523.621 379.879 516.128C387.448 509.876 395.056 503.677 402.693 497.508C410.203 491.439 417.633 485.294 424.978 479.026C432.641 472.488 440.493 466.238 448.452 460.063C455.536 454.544 462.386 448.79 469.204 442.949C476.054 437.116 483.124 431.609 490.32 426.208C494.333 423.184 498.017 420.111 501.52 416.517C484.917 416.084 468.316 415.755 451.709 415.554C443.995 415.458 436.285 415.327 428.574 415.115C421.115 414.912 413.66 414.802 406.199 414.754C403.369 414.72 400.54 414.654 397.712 414.552C377.12 413.846 366.211 417.629 351.976 432.673ZM503.07 427.354C501.797 428.526 500.524 429.697 499.212 430.904C498.279 431.872 497.346 432.84 496.385 433.838C495.431 434.817 494.478 435.797 493.496 436.807C492.563 437.775 491.63 438.743 490.668 439.74C489.649 440.597 488.631 441.454 487.581 442.337C483.539 447.005 482.768 450.858 481.421 456.867C481.17 457.953 480.919 459.039 480.66 460.157C480.123 462.482 479.594 464.808 479.073 467.137C478.015 471.818 476.879 476.48 475.743 481.144C474.206 487.465 472.701 493.793 471.194 500.121C470.866 501.496 470.538 502.87 470.201 504.286C461.816 539.488 453.7 574.752 445.712 610.045C445.409 611.383 445.106 612.721 444.794 614.099C443.159 621.323 441.536 628.549 439.931 635.779C439.464 637.882 438.994 639.985 438.521 642.087C437.884 644.926 437.259 647.767 436.635 650.608C436.288 652.17 435.942 653.732 435.586 655.341C434.643 660.142 434.643 660.142 434.86 667.33C475.274 667.33 515.689 667.33 557.328 667.33C559.902 659.686 559.902 659.686 561.913 651.989C562.163 650.888 562.412 649.787 562.669 648.653C562.929 647.484 563.188 646.315 563.456 645.11C563.736 643.867 564.016 642.623 564.304 641.342C565.213 637.297 566.115 633.251 567.016 629.205C567.648 626.385 568.279 623.566 568.911 620.747C573.58 599.869 578.097 578.961 582.554 558.038C587.836 533.31 593.266 508.622 598.959 483.986C599.537 481.482 599.537 481.482 600.127 478.928C602.054 470.583 603.989 462.24 605.936 453.9C606.653 450.809 607.369 447.718 608.085 444.627C608.416 443.222 608.746 441.818 609.087 440.371C610.92 432.428 612.27 424.623 613.135 416.517C600.845 416.265 588.556 416.073 576.263 415.955C570.554 415.899 564.847 415.823 559.138 415.699C553.62 415.581 548.103 415.516 542.584 415.488C539.474 415.459 536.365 415.375 533.257 415.289C519.808 415.283 512.535 417.751 503.07 427.354ZM634.838 416.517C624.301 458.087 624.301 458.087 616.236 500.121C648.976 499.61 681.717 499.099 715.45 498.573C706.436 543.583 706.436 543.583 701.982 563.405C701.469 565.705 700.957 568.005 700.444 570.306C697.397 583.929 694.252 597.528 691.052 611.116C690.696 612.632 690.339 614.149 689.972 615.711C688.219 623.166 686.457 630.618 684.677 638.067C684.035 640.788 683.392 643.508 682.75 646.229C682.45 647.468 682.15 648.708 681.842 649.985C681.571 651.139 681.3 652.294 681.021 653.483C680.783 654.48 680.545 655.478 680.3 656.505C679.586 660.341 679.586 660.341 679.795 667.33C726.859 667.33 773.924 667.33 822.415 667.33C825.357 655.576 828.234 643.849 830.868 632.029C831.211 630.5 831.554 628.971 831.907 627.396C833.008 622.484 834.106 617.571 835.204 612.658C835.967 609.253 836.73 605.849 837.493 602.445C838.635 597.354 839.776 592.263 840.916 587.172C844.035 573.247 847.171 559.325 850.319 545.407C850.731 543.582 851.143 541.757 851.568 539.877C851.955 538.165 852.342 536.454 852.741 534.69C853.105 533.081 853.468 531.471 853.843 529.813C854.645 526.312 855.462 522.814 856.29 519.32C856.717 517.511 857.145 515.701 857.585 513.837C858.17 511.394 858.17 511.394 858.766 508.901C859.777 504.711 859.777 504.711 859.62 500.121C861.788 500.162 861.788 500.162 863.999 500.204C877.659 500.456 891.319 500.641 904.981 500.763C912.004 500.827 919.026 500.915 926.047 501.055C932.832 501.191 939.616 501.264 946.402 501.296C948.982 501.319 951.563 501.363 954.142 501.431C971.223 502.088 971.223 502.088 985.838 494.078C987.731 492.002 989.588 489.892 991.389 487.735C994.05 485.519 996.728 483.322 999.43 481.155C1007.02 475.001 1014.46 468.694 1021.87 462.321C1026.34 458.473 1030.83 454.638 1035.35 450.85C1044.79 442.945 1054.05 434.904 1063.04 426.486C1068.59 421.317 1068.59 421.317 1072 419.613C1072 418.591 1072 417.57 1072 416.517C927.737 416.517 783.473 416.517 634.838 416.517Z" fill="white"/>
</svg>
